<svg width="84" height="85" viewBox="0 0 84 85" fill="none" xmlns="http://www.w3.org/2000/svg">
<path d="M78.97 71.33C78.25 70.56 68.65 60.19 67.5 47.52C67.48 46.871 67.02 33.55 60.39 23.4L62.531 21.91C63.841 22.72 65.381 23.17 66.941 23.17C71.571 23.17 75.34 19.4 75.34 14.77C75.34 10.14 71.57 6.37 66.941 6.37C62.31 6.37 58.541 10.14 58.541 14.77C58.541 15.18 58.581 15.59 58.641 15.98L57.301 17.19C57.161 15.23 55.931 13.15 53.601 11C53.452 10.86 53.282 10.77 53.091 10.71C52.851 10.65 47.571 9.18 42.141 9.71C41.421 5.99 37.242 3.96 37.061 3.88C36.881 3.79 33.671 2.25 29.242 3.17C28.942 2.31 28.431 1.74 27.982 1.38C25.68 -0.439996 21.67 0.430004 21.22 0.530004C21.18 0.540004 21.14 0.550004 21.1 0.570004C19.701 1.04 16.42 2.24 13.731 3.74C10.52 -0.759996 3.861 0.210004 3.56 0.250004C3.29 0.290004 3.04 0.420004 2.861 0.620004C2.68 0.800004 -1.44 5.17 2.61 14.18C2.66 14.29 2.719 14.39 2.799 14.48C1.459 16.56 0.419 19.18 0.839 22C0.869 22.54 1.069 24.4 2.419 25.3C2.769 25.53 3.269 25.76 3.94 25.76C3.98 25.76 4.04 25.74 4.089 25.74C3.169 27.96 2.889 30.06 3.299 32.02C3.919 34.95 5.9 36.74 7.059 37.57C6.459 40.27 5.429 48.17 11.519 55.78C18.839 64.92 27.889 73.98 50.669 75.5H50.779C55.989 75.35 70.098 76.24 72.879 81.81C72.969 81.981 73.089 82.13 73.249 82.25L76.249 84.5C76.449 84.65 76.689 84.74 76.949 84.75H77.189C78.039 84.75 80.668 84.61 82.359 82.9C83.348 81.9 83.829 80.53 83.749 78.929C83.57 75.58 81.08 72.96 78.97 71.33ZM60.84 17.37C60.88 17.33 60.91 17.27 60.941 17.23C61.001 17.16 61.06 17.09 61.1 17.01C61.14 16.94 61.151 16.87 61.18 16.79C61.201 16.71 61.231 16.64 61.231 16.56C61.241 16.47 61.231 16.39 61.22 16.3C61.21 16.24 61.22 16.18 61.21 16.12C61.1 15.7 61.04 15.24 61.04 14.77C61.04 11.52 63.69 8.87 66.94 8.87C70.19 8.87 72.839 11.52 72.839 14.77C72.839 18.02 70.19 20.67 66.94 20.67C65.599 20.67 64.33 20.23 63.299 19.41C63.279 19.4 63.249 19.39 63.23 19.38C63.169 19.33 63.089 19.3 63.009 19.27C62.94 19.23 62.869 19.2 62.789 19.18C62.719 19.16 62.639 19.17 62.569 19.16C62.479 19.16 62.399 19.15 62.319 19.17C62.249 19.18 62.178 19.21 62.109 19.23C62.018 19.26 61.939 19.29 61.869 19.34C61.848 19.35 61.819 19.35 61.799 19.36L58.94 21.36C58.589 20.92 58.24 20.48 57.86 20.06L60.84 17.37ZM80.59 81.13C79.76 81.981 78.24 82.21 77.41 82.25L74.97 80.42C70.7 72.72 52.19 72.97 50.78 73C29.05 71.54 20.44 62.92 13.48 54.22C7.049 46.18 9.54 37.85 9.679 37.4C13.73 26 26.5 18.49 26.63 18.41C27.22 18.07 27.43 17.3 27.08 16.71C26.74 16.11 25.97 15.91 25.37 16.25C24.84 16.56 12.76 23.66 7.92 35.07C7.11 34.36 6.11 33.19 5.75 31.5C5.17 28.8 6.39 25.59 9.35 21.96C11.68 19.54 14.031 17.2 15.93 15.4C17.821 13.59 19.281 12.33 19.84 12.07C20.46 11.96 20.901 11.41 20.87 10.77C20.83 10.08 20.26 9.56 19.55 9.6C19.02 9.63 17.43 9.72 5.18 22.71C4.861 22.92 4.58 23.08 4.33 23.17C4.24 23.2 3.93 23.31 3.809 23.23C3.57 23.06 3.36 22.35 3.33 21.83C3.33 21.78 3.33 21.73 3.32 21.68C2.53 16.61 8.41 11.87 8.469 11.82C9.009 11.39 9.099 10.61 8.669 10.07C8.249 9.53 7.459 9.43 6.919 9.86C6.809 9.95 5.73 10.82 4.499 12.23C2.289 6.66 3.769 3.61 4.399 2.68C5.749 2.57 9.649 2.53 11.619 5.1C10.759 5.77 10.098 6.47 9.829 7.18C9.589 7.82 9.909 8.54 10.558 8.79C10.699 8.85 10.848 8.87 10.998 8.87C11.498 8.87 11.978 8.57 12.168 8.07C12.638 6.83 17.538 4.43 21.838 2.95C22.738 2.76 25.298 2.44 26.428 3.34C26.558 3.45 26.718 3.62 26.838 3.89C25.859 4.28 24.848 4.78 23.818 5.45C23.238 5.83 23.078 6.61 23.448 7.18C23.828 7.76 24.608 7.92 25.177 7.55C30.957 3.77 35.747 6.02 35.967 6.13C35.997 6.15 39.137 7.7 39.667 10.13C37.487 10.64 35.637 11.49 34.188 12.71C33.667 13.16 33.597 13.95 34.047 14.48C34.487 15 35.277 15.07 35.807 14.62C37.148 13.49 38.957 12.72 41.198 12.35C45.838 11.59 50.887 12.73 52.128 13.04C54.108 14.94 55.038 16.65 54.788 18.01C54.478 19.78 52.298 20.71 52.267 20.72C51.637 20.98 51.328 21.71 51.587 22.35C51.787 22.83 52.257 23.13 52.747 23.13C52.907 23.13 53.067 23.1 53.217 23.04C53.307 23 54.568 22.47 55.677 21.36C64.42 30.92 65 47.42 65 47.67C65.76 56.02 69.76 63.25 72.99 67.86C69.91 66.349 65.32 64.37 60.32 63.13C60.309 63.12 60.309 63.12 60.299 63.12C60.289 63.12 60.289 63.12 60.279 63.11C55.29 61.3 54.99 52.7 54.81 47.54C54.79 46.95 54.77 46.39 54.75 45.9C54.49 40.73 52.98 36.72 52.94 36.629C50.839 29.809 46.78 25.869 44.23 23.959C45.269 23.589 46.349 23.239 47.009 23.099C47.679 22.959 48.119 22.299 47.969 21.619C47.829 20.949 47.169 20.509 46.49 20.659C44.91 20.989 41.9 22.149 41.07 22.479C41.019 22.499 40.969 22.519 40.92 22.539C40.77 22.599 40.67 22.649 40.64 22.659C32.01 26.8 25.8 35.35 26.51 42.13C27.14 48.231 29.38 50.22 31.55 52.151C32.14 52.671 32.75 53.22 33.33 53.84C36.41 57.2 47.17 63.21 57.03 64.981C57.84 65.121 58.7 65.31 59.67 65.541C59.68 65.551 59.691 65.541 59.7 65.551C59.71 65.551 59.71 65.551 59.72 65.551C59.731 65.551 59.731 65.561 59.741 65.561H59.751C68.111 67.652 75.541 72.032 75.651 72.101C75.661 72.101 76.371 72.492 77.27 73.171C77.3 73.201 77.331 73.221 77.361 73.241C78.751 74.31 81.111 76.481 81.251 79.071C81.3 79.96 81.08 80.63 80.59 81.13Z" fill="black"/>
<path d="M66.94 10.27C64.46 10.27 62.44 12.29 62.44 14.77C62.44 17.25 64.46 19.27 66.94 19.27C69.419 19.27 71.44 17.25 71.44 14.77C71.44 12.29 69.42 10.27 66.94 10.27ZM66.94 16.77C65.83 16.77 64.94 15.88 64.94 14.77C64.94 13.67 65.83 12.77 66.94 12.77C68.04 12.77 68.94 13.67 68.94 14.77C68.94 15.88 68.04 16.77 66.94 16.77Z" fill="black"/>
</svg>
